<?xml version='1.0'?>
<svg viewBox="0 0 600 400" xmlns="http://www.w3.org/2000/svg" xmlns:xlink="http://www.w3.org/1999/xlink">
 <!-- Created with SVG-edit - http://svg-edit.googlecode.com/ -->
 <defs>
  <radialGradient id="svg_8" cx="0.5" cy="0.5" r="0.83143">
   <stop offset="0" stop-color="#ffffff"/>
   <stop offset="0.7" stop-color="#ffff00"/>
   <stop offset="1" stop-color="#ffff00"/>
  </radialGradient>
 </defs>
 <title>kthoom logo</title>
<a xlink:href="http://kthoom.googlecode.com/" xlink:title="Go to project page" target="_blank">
 <g>
  <title>Balloon</title>
  <path fill="url(#svg_8)" stroke="#000000" stroke-width="5" d="m75,86l106,44l49,-87l73,56l51,-88l66,59l91,-59l-5,102l78,25l-50,72l44,99l-89,-38l-21,78.5l-83,-44.5l-50,62l-70,-53l-58,66l-57,-62l-93,57l8,-101l-56,-57l65,-50l1,-81z" id="svg_1"/>
 </g>
 <g>
  <title>Text</title>
  <path id="svg_2" d="m122.25,172l28.5,0l-18,39l22.75,-25.75l31.75,0.25l-37,47.5l-3.5,61.5l-34,0.75l3.25,-45.5l-10.5,24.75l-32.25,-5l49,-97.5z" stroke-width="5" stroke="#000000" fill="#FF0000"/>
  <path id="svg_3" d="m178.75,169.75l59.25,-2.5l-6.5,33l-20.5,0.75l-22.5,72.75l-33.5,1.25l30.5,-74.75l-19.25,0.75l12.5,-31.25z" stroke-width="5" stroke="#000000" fill="#FF0000"/>
  <path id="svg_4" d="m233.25,180.75l23.25,-2l-7.5,29l9.75,0.25l10.25,-36.75l30,-6.5l-23.75,106.75l-33,4.75l7.25,-30.75l-9.75,-0.5l-12.75,43.5l-33,0.75l39.25,-108.5z" stroke-width="5" stroke="#000000" fill="#FF0000"/>
  <path id="o1" fill-rule="evenodd" d="m285.80481,208.129517c0,-34.607513 20.020081,-62.639603 44.736237,-62.639603c24.716156,0 44.736237,28.032089 44.736237,62.639603c0,34.607513 -20.020081,62.639587 -44.736237,62.639587c-24.716156,0 -44.736237,-28.032059 -44.736237,-62.639587zm44.915955,-30.157074c21.987,-1.466156 22.671967,65.681931 -2.175079,61.394302c-24.847015,-4.287628 -19.81192,-59.928162 2.175079,-61.394302z" transform="rotate(6.34018, 330.541, 208.129)" stroke-width="5" stroke="#000000" fill="#FF0000"/>
  <path id="o2" fill-rule="evenodd" d="m358.854156,194.132721c0,-34.608002 14.443146,-63.026489 41.367767,-63.523438c26.924622,-0.496948 48.104248,28.915436 48.104248,63.523438c0,34.606995 -20.02002,62.639008 -44.736023,62.639008c-24.715973,0 -44.735992,-28.032013 -44.735992,-62.639008zm41.796478,-31.069046c25.023987,-1.301361 31.423676,62.948822 4.39563,61.671097c-27.028137,-1.277725 -29.419647,-60.369751 -4.39563,-61.671097z" transform="rotate(6.34018, 403.592, 193.688)" stroke-width="5" stroke="#000000" fill="#FF0000"/>
  <path fill="#FF0000" stroke="#000000" stroke-width="5" d="m450.5,241.5l-24.5,-101.279663l14,-15.328796l22,33.942352l-8,-54.745766l15,-24.088127l52.5,122.630493l-22.5,25.73053l-21,-60.767822l2.5,34.763565l-5.5,6.022034l-15.5,-24.361862l13.5,40.511856l-22.5,16.971191z" id="m"/>
 </g>
</a>
</svg>